<!DOCTYPE svg PUBLIC "-//W3C//DTD SVG 20010904//EN" "http://www.w3.org/TR/2001/REC-SVG-20010904/DTD/svg10.dtd">
<svg version="1.0" xmlns="http://www.w3.org/2000/svg" width="512px" height="512px" viewBox="0 0 5120 5120" preserveAspectRatio="xMidYMid meet">
<g id="layer101" fill="#ffffff" stroke="none">
 <path d="M472 5100 c-277 -73 -472 -325 -472 -610 0 -130 48 -275 123 -375 17 -22 370 -381 786 -797 l756 -758 -776 -777 c-716 -718 -778 -784 -813 -850 -131 -256 -89 -549 109 -748 196 -197 492 -240 748 -109 66 35 132 97 850 813 l777 775 778 -775 c717 -716 783 -778 849 -813 256 -131 550 -88 748 109 197 198 240 492 109 748 -35 67 -96 131 -813 850 l-776 777 756 758 c416 416 769 775 786 797 184 244 157 600 -62 820 -198 197 -492 240 -748 109 -66 -35 -132 -97 -849 -813 l-778 -775 -777 775 c-718 716 -784 778 -850 813 -145 74 -312 95 -461 56z"/>
 </g>

</svg>