<!DOCTYPE svg PUBLIC "-//W3C//DTD SVG 20010904//EN" "http://www.w3.org/TR/2001/REC-SVG-20010904/DTD/svg10.dtd">
<svg version="1.0" xmlns="http://www.w3.org/2000/svg" width="512px" height="512px" viewBox="0 0 5120 5120" preserveAspectRatio="xMidYMid meet">
<g id="layer101" fill="#ffffff" stroke="none">
 <path d="M2323 5106 c-196 -48 -369 -218 -417 -412 -49 -195 7 -397 149 -539 116 -116 241 -169 400 -169 457 -1 726 509 469 887 -108 157 -282 248 -474 246 -41 0 -99 -6 -127 -13z"/>
 <path d="M2330 3530 c-156 -33 -284 -161 -331 -331 -18 -68 -13 -232 10 -321 48 -184 173 -363 379 -540 53 -46 174 -144 267 -218 225 -176 305 -248 381 -343 111 -137 154 -249 154 -402 0 -286 -150 -482 -427 -557 -104 -28 -343 -31 -448 -5 -226 57 -341 171 -493 487 -84 176 -131 246 -202 305 -78 64 -144 87 -264 93 -118 5 -188 -8 -271 -52 -163 -85 -233 -242 -207 -465 48 -409 363 -789 837 -1008 282 -131 535 -180 869 -170 352 11 636 75 905 203 511 244 781 679 758 1219 -18 409 -236 745 -709 1092 -463 339 -496 367 -559 473 -21 36 -57 112 -79 170 -96 242 -154 311 -296 355 -61 19 -214 27 -274 15z"/>
 </g>

</svg>