<!DOCTYPE svg PUBLIC "-//W3C//DTD SVG 20010904//EN" "http://www.w3.org/TR/2001/REC-SVG-20010904/DTD/svg10.dtd">
<svg version="1.0" xmlns="http://www.w3.org/2000/svg" width="1024px" height="1024px" viewBox="0 0 10240 10240" preserveAspectRatio="xMidYMid meet">
<g id="layer101" fill="#ffffff" stroke="none">
 <path d="M1760 10221 c-169 -45 -328 -173 -408 -327 -77 -150 -72 19 -72 -2171 l0 -1963 -363 0 c-329 0 -371 -2 -441 -20 -285 -73 -476 -322 -476 -620 0 -164 46 -287 167 -441 66 -85 4311 -4331 4475 -4477 156 -139 272 -191 440 -200 109 -5 193 8 281 43 135 55 174 90 940 854 l737 735 0 -219 c0 -244 9 -304 60 -407 91 -182 240 -304 435 -353 87 -22 843 -22 930 0 211 53 382 208 461 415 l29 75 3 1199 2 1200 523 525 c287 289 550 561 584 603 124 156 173 283 173 448 0 298 -191 547 -476 620 -70 18 -112 20 -441 20 l-363 0 0 1963 c0 2188 6 2008 -72 2167 -57 118 -160 221 -278 278 -155 76 -88 72 -1207 72 l-1003 0 0 -1617 c-1 -1786 2 -1711 -64 -1849 -82 -174 -221 -292 -412 -351 -55 -17 -110 -18 -804 -18 -694 0 -749 1 -805 18 -215 66 -367 212 -442 422 l-28 80 -3 1658 -2 1657 -1008 -1 c-928 0 -1012 -2 -1072 -18z"/>
 </g>

</svg>